<svg xmlns="http://www.w3.org/2000/svg" width="21" height="22" fill="none"><path fill="#F45A3B" d="M1.5 14c0 3.81 2.504 7 7.01 7 4.061 0 7.512-2.595 7.512-7 0-5.5 5.008-6.5 3.005-13-.981 2.926-3.005 4-6.01 6.5 1.665-1.74.624-4.823-.5-5.5-.466 2.256-1.502 3.5-2.533 4.79.03-1.79-.802-2.751-1.974-3.29-.461 1.19-1.574 2.976-2.958 4.167C3.528 8.977 1.5 10.19 1.5 14Z"/><path stroke="#F29F3D" stroke-linecap="round" stroke-linejoin="round" stroke-width="2" d="M11.015 12.5c0-2 .339-3.26 2.003-5m0 0c1.664-1.74.623-4.823-.501-5.5-.466 2.256-1.502 3.5-2.533 4.79.03-1.79-.802-2.751-1.974-3.29-.461 1.19-1.574 2.976-2.958 4.167C3.528 8.977 1.5 10.19 1.5 14c0 3.81 2.504 7 7.01 7 4.061 0 7.512-2.595 7.512-7 0-5.5 5.008-6.5 3.005-13-.981 2.926-3.005 4-6.01 6.5Z"/></svg>